HIERARCHY
ROOT Hips
{
	OFFSET 0.000000 0.000000 0.000000
	CHANNELS 6 Xposition Yposition Zposition Zrotation Yrotation Xrotation 
	JOINT LHipJoint
	{
		OFFSET 0.000000 0.000000 0.000000
		CHANNELS 3 Zrotation Yrotation Xrotation
		JOINT LeftUpLeg
		{
			OFFSET 1.363060 -1.794630 0.839290
			CHANNELS 3 Zrotation Yrotation Xrotation
			JOINT LeftLeg
			{
				OFFSET 2.448110 -6.726130 0.000000
				CHANNELS 3 Zrotation Yrotation Xrotation
				JOINT LeftFoot
				{
					OFFSET 2.562200 -7.039590 0.000000
					CHANNELS 3 Zrotation Yrotation Xrotation
					JOINT LeftToeBase
					{
						OFFSET 0.157640 -0.433110 2.322550
						CHANNELS 3 Zrotation Yrotation Xrotation
						End Site
						{
							OFFSET 0.000000 0.000000 0.000000
						}
					}
				}
			}
		}
	}
	JOINT RHipJoint
	{
		OFFSET 0.000000 0.000000 0.000000
		CHANNELS 3 Zrotation Yrotation Xrotation
		JOINT RightUpLeg
		{
			OFFSET -1.305520 -1.794630 0.839290
			CHANNELS 3 Zrotation Yrotation Xrotation
			JOINT RightLeg
			{
				OFFSET -2.542530 -6.985550 0.000000
				CHANNELS 3 Zrotation Yrotation Xrotation
				JOINT RightFoot
				{
					OFFSET -2.568260 -7.056230 0.000000
					CHANNELS 3 Zrotation Yrotation Xrotation
					JOINT RightToeBase
					{
						OFFSET -0.164730 -0.452590 2.363150
						CHANNELS 3 Zrotation Yrotation Xrotation
						End Site
						{
							OFFSET 0.000000 0.000000 0.000000
						}
					}
				}
			}
		}
	}
	JOINT LowerBack
	{
		OFFSET 0.000000 0.000000 0.000000
		CHANNELS 3 Zrotation Yrotation Xrotation
		JOINT Spine
		{
			OFFSET 0.028270 2.035590 -0.193380
			CHANNELS 3 Zrotation Yrotation Xrotation
			JOINT Spine1
			{
				OFFSET 0.056720 2.048850 -0.042750
				CHANNELS 3 Zrotation Yrotation Xrotation
				JOINT Neck
				{
					OFFSET 0.000000 0.000000 0.000000
					CHANNELS 3 Zrotation Yrotation Xrotation
					JOINT Neck1
					{
						OFFSET -0.054170 1.746240 0.172020
						CHANNELS 3 Zrotation Yrotation Xrotation
						JOINT Head
						{
							OFFSET 0.104070 1.761360 -0.123970
							CHANNELS 3 Zrotation Yrotation Xrotation
							End Site
							{
								OFFSET 0.000000 0.000000 0.000000
							}
						}
					}
				}
				JOINT LeftShoulder
				{
					OFFSET 0.000000 0.000000 0.000000
					CHANNELS 3 Zrotation Yrotation Xrotation
					JOINT LeftArm
					{
						OFFSET 3.362410 1.200890 -0.311210
						CHANNELS 3 Zrotation Yrotation Xrotation
						JOINT LeftForeArm
						{
							OFFSET 4.983000 -0.000000 -0.000000
							CHANNELS 3 Zrotation Yrotation Xrotation
							JOINT LeftHand
							{
								OFFSET 3.483560 -0.000000 -0.000000
								CHANNELS 3 Zrotation Yrotation Xrotation
								JOINT LeftFingerBase
								{
									OFFSET 0.000000 0.000000 0.000000
									CHANNELS 3 Zrotation Yrotation Xrotation
									JOINT LeftHandIndex1
									{
										OFFSET 0.715260 -0.000000 -0.000000
										CHANNELS 3 Zrotation Yrotation Xrotation
										End Site
										{
											OFFSET 0.000000 0.000000 0.000000
										}
									}
								}
								JOINT LThumb
								{
									OFFSET 0.000000 0.000000 0.000000
									CHANNELS 3 Zrotation Yrotation Xrotation
									End Site
									{
										OFFSET 0.000000 0.000000 0.000000
									}
								}
							}
						}
					}
				}
				JOINT RightShoulder
				{
					OFFSET 0.000000 0.000000 0.000000
					CHANNELS 3 Zrotation Yrotation Xrotation
					JOINT RightArm
					{
						OFFSET -3.136600 1.374050 -0.404650
						CHANNELS 3 Zrotation Yrotation Xrotation
						JOINT RightForeArm
						{
							OFFSET -5.241900 -0.000000 -0.000000
							CHANNELS 3 Zrotation Yrotation Xrotation
							JOINT RightHand
							{
								OFFSET -3.444170 -0.000000 -0.000000
								CHANNELS 3 Zrotation Yrotation Xrotation
								JOINT RightFingerBase
								{
									OFFSET 0.000000 0.000000 0.000000
									CHANNELS 3 Zrotation Yrotation Xrotation
									JOINT RightHandIndex1
									{
										OFFSET -0.622530 -0.000000 -0.000000
										CHANNELS 3 Zrotation Yrotation Xrotation
										End Site
										{
											OFFSET 0.000000 0.000000 0.000000
										}
									}
								}
								JOINT RThumb
								{
									OFFSET 0.000000 0.000000 0.000000
									CHANNELS 3 Zrotation Yrotation Xrotation
									End Site
									{
										OFFSET 0.000000 0.000000 0.000000
									}
								}
							}
						}
					}
				}
			}
		}
	}
}
MOTION
Frames: 12
Frame Time: 0.008333
3.414030 17.099829 1.492987 15.905924 -27.568499 -1.481181 -7.685764 0.404688 9.317638 -15.823957 -32.326262 -9.959534 -4.394461 -1.138014 -2.011058 -1.096506 -6.897256 11.036995 -1.409600 0.000000 -40.509000 12.012935 -0.425656 -5.451731 -13.686313 -40.160454 7.200002 0.124207 0.658448 -1.299654 -5.178041 -31.105914 2.361822 -7.536101 0.000000 -53.388100 -2.823448 1.642476 -5.453845 -0.480807 1.958419 -4.332535 -0.835381 1.867974 -2.990774 -6.801199 5.280203 1.493670 -1.947394 -0.264752 2.506919 0.000000 0.000000 0.000000 1.352566 6.264636 -8.587903 -95.737348 -64.396684 49.416546 179.062288 -77.300478 179.848594 9.973551 -6.059722 -0.612553 -0.050524 0.917172 -0.000000 0.000000 0.000000 0.000000 0.000000 0.000000 0.000000 -7.258350 10.925736 4.796475 15.539984 11.699104 -50.771298 -1.424400 17.502134 -0.179464 -26.546732 8.535170 -2.174003 0.383978 -0.535876 -0.000000 0.000000 0.000000 0.000000 0.000000 0.000000 0.000000 
3.415302 17.102028 1.475512 16.042431 -27.445288 -1.567067 -7.752277 0.318649 9.293564 -15.836716 -32.539612 -9.929688 -4.388700 -1.128730 -1.954517 -1.079284 -6.675902 11.101206 -1.350800 -0.000000 -40.399600 11.943251 -0.440428 -5.503349 -13.735513 -40.112732 7.341663 0.108507 0.640174 -1.446258 -5.198514 -31.199620 2.412986 -7.593500 0.000001 -53.365900 -2.566532 1.844557 -5.342326 -0.368996 2.144907 -4.266314 -0.545758 2.052895 -2.855569 -7.931374 5.914796 1.279200 -1.790670 -0.252257 2.448949 0.000000 0.000000 0.000000 0.485110 7.013407 -8.524573 -95.128206 -64.266496 48.547851 179.001382 -76.715825 179.848779 10.039931 -5.956217 -0.606430 -0.046801 0.905129 -0.000000 0.000000 0.000000 0.000000 0.000000 0.000000 0.000000 -8.855732 11.550915 4.867112 12.475220 12.284834 -56.039366 -1.670726 12.716951 -0.172228 -25.971921 9.561112 -2.374319 0.406092 -0.555581 -0.000000 0.000000 0.000000 0.000000 0.000000 0.000000 0.000000 
3.413804 17.104523 1.458030 16.156170 -27.335971 -1.617360 -7.803297 0.243588 9.276419 -15.815725 -32.750935 -9.936195 -4.382003 -1.120718 -1.906174 -1.063842 -6.475346 11.170513 -1.298200 -0.000000 -40.289000 11.889556 -0.455964 -5.551612 -13.753612 -40.089584 7.459763 0.099266 0.629393 -1.630187 -5.212995 -31.270965 2.465746 -7.645400 0.000000 -53.338901 -2.372624 2.023958 -5.236480 -0.267120 2.315016 -4.217351 -0.251428 2.220209 -2.777378 -8.955298 6.503827 1.083322 -1.629422 -0.239921 2.398072 0.000000 0.000000 0.000000 -0.279481 7.642558 -8.489192 -94.793526 -64.019447 47.841446 178.933922 -76.124385 179.848796 10.089003 -5.889427 -0.602391 -0.041928 0.895563 -0.000000 0.000000 0.000000 0.000000 0.000000 0.000000 0.000000 -10.402057 12.139324 4.919813 9.649123 12.433964 -60.985475 -1.891990 8.866445 -0.165433 -25.571061 10.362663 -2.529112 0.428492 -0.571493 -0.000000 0.000000 0.000000 0.000000 0.000000 0.000000 0.000000 
3.409393 17.107269 1.440563 16.242015 -27.233544 -1.636536 -7.835869 0.181484 9.267980 -15.764051 -32.952766 -9.971089 -4.375976 -1.114615 -1.870243 -1.051481 -6.307961 11.247401 -1.255300 -0.000000 -40.191400 11.855155 -0.473182 -5.595538 -13.748199 -40.107128 7.557770 0.097878 0.626143 -1.845332 -5.219470 -31.310861 2.518539 -7.687100 0.000001 -53.304900 -2.253378 2.180587 -5.142376 -0.180879 2.469188 -4.184383 0.035553 2.370908 -2.747113 -9.842397 7.000364 0.913654 -1.468018 -0.228107 2.356218 0.000000 0.000000 0.000000 -0.912799 8.137111 -8.487224 -94.735998 -63.659400 47.310100 178.861320 -75.525586 179.848757 10.112214 -5.856509 -0.600035 -0.035964 0.888417 -0.000000 0.000000 0.000000 0.000000 0.000000 0.000000 0.000000 -11.856485 12.648326 4.952114 7.154332 12.251553 -65.074746 -2.067780 5.996511 -0.159858 -25.357201 10.800040 -2.613281 0.452912 -0.581905 0.000000 0.000000 0.000000 0.000000 0.000000 0.000000 0.000000 
3.402094 17.110228 1.423165 16.299886 -27.140688 -1.629374 -7.850560 0.133367 9.267973 -15.683272 -33.136271 -10.028203 -4.371138 -1.110782 -1.850081 -1.042691 -6.178776 11.332450 -1.223900 0.000000 -40.114199 11.840213 -0.492651 -5.633996 -13.722075 -40.168030 7.635543 0.104619 0.629883 -2.084807 -5.217041 -31.314635 2.572145 -7.717400 0.000000 -53.274400 -2.207673 2.314594 -5.063571 -0.113596 2.606932 -4.163954 0.300959 2.504988 -2.750767 -10.583053 7.342563 0.768159 -1.311106 -0.217047 2.322487 0.000000 0.000000 0.000000 -1.404250 8.497180 -8.521010 -94.929502 -63.202554 46.944540 178.784609 -74.918409 179.848796 10.103833 -5.851793 -0.598365 -0.028959 0.883357 -0.000000 0.000000 0.000000 0.000000 0.000000 0.000000 0.000000 -13.194072 13.016948 4.963484 5.027545 11.944708 -68.117102 -2.193891 4.023165 -0.155549 -25.236695 10.922660 -2.632928 0.478852 -0.588347 0.000000 0.000000 0.000000 0.000000 0.000000 0.000000 0.000000 
3.392326 17.113435 1.405875 16.330191 -27.066752 -1.600687 -7.850712 0.099280 9.274733 -15.574349 -33.292318 -10.102670 -4.366976 -1.109174 -1.847073 -1.037222 -6.085916 11.424637 -1.203299 -0.000000 -40.073100 11.842006 -0.514659 -5.666483 -13.675432 -40.269004 7.689760 0.119825 0.639591 -2.340033 -5.204742 -31.276072 2.628261 -7.735099 0.000000 -53.257400 -2.224064 2.426649 -5.001296 -0.065668 2.727498 -4.152065 0.533418 2.622003 -2.773990 -11.183043 7.484281 0.642324 -1.162811 -0.206894 2.295180 0.000000 0.000000 0.000000 -1.759744 8.729829 -8.588508 -95.322038 -62.673436 46.714888 178.704423 -74.293986 179.848985 10.062898 -5.865842 -0.596580 -0.021090 0.879926 -0.000000 0.000000 0.000000 0.000000 0.000000 0.000000 0.000000 -14.402174 13.198558 4.956350 3.243814 11.709270 -70.250059 -2.279266 2.804321 -0.152179 -25.065246 10.900233 -2.613462 0.503461 -0.594629 -0.000000 0.000000 0.000000 0.000000 0.000000 0.000000 0.000000 
3.380428 17.116992 1.388811 16.336547 -27.028017 -1.552702 -7.840388 0.079070 9.286690 -15.436032 -33.412181 -10.196354 -4.362341 -1.109827 -1.861005 -1.034199 -6.020934 11.518836 -1.190800 0.000001 -40.055300 11.857171 -0.539363 -5.689813 -13.601412 -40.390987 7.711084 0.142609 0.654449 -2.602951 -5.183261 -31.193457 2.680710 -7.736400 0.000001 -53.246100 -2.287844 2.516904 -4.959247 -0.035542 2.829577 -4.145857 0.726558 2.720698 -2.804221 -11.657004 7.409269 0.531177 -1.025324 -0.197678 2.272451 0.000000 0.000000 0.000000 -1.996378 8.851602 -8.682485 -95.848116 -62.099081 46.578211 178.621473 -73.646668 179.849223 10.003435 -5.891447 -0.594684 -0.013037 0.877837 -0.000000 0.000000 0.000000 0.000000 0.000000 0.000000 0.000000 -15.485224 13.177301 4.932425 1.773063 11.675131 -71.748490 -2.339629 2.235540 -0.149648 -24.738170 10.903390 -2.583887 0.523378 -0.605006 -0.000000 0.000000 0.000000 0.000000 0.000000 0.000000 0.000000 
3.367157 17.121086 1.372046 16.318892 -27.044304 -1.488812 -7.824851 0.072063 9.300963 -15.266997 -33.486518 -10.307409 -4.355479 -1.112517 -1.891550 -1.032315 -5.970887 11.611034 -1.182500 0.000000 -40.068901 11.881178 -0.567727 -5.701639 -13.491295 -40.512060 7.692109 0.171644 0.673003 -2.866851 -5.153447 -31.069166 2.734706 -7.725400 -0.000000 -53.260200 -2.381133 2.587432 -4.938176 -0.021458 2.913450 -4.143479 0.872565 2.801544 -2.834223 -12.011531 7.126976 0.434991 -0.903568 -0.189669 2.253850 0.000000 0.000000 0.000000 -2.126494 8.871214 -8.794458 -96.441932 -61.503157 46.493463 178.538370 -72.971674 179.849581 9.925878 -5.918279 -0.591977 -0.005183 0.876822 -0.000000 0.000000 0.000000 0.000000 0.000000 0.000000 0.000000 -16.425989 12.962922 4.894470 0.558107 11.899930 -72.789237 -2.383784 2.226818 -0.147833 -24.194047 11.009669 -2.555111 0.536120 -0.621835 -0.000000 0.000000 0.000000 0.000000 0.000000 0.000000 0.000000 
3.353128 17.125782 1.355641 16.279978 -27.136563 -1.411732 -7.808307 0.077675 9.314774 -15.065900 -33.507132 -10.434970 -4.344775 -1.117307 -1.938054 -1.030015 -5.918957 11.695354 -1.172900 0.000000 -40.104000 11.910541 -0.600605 -5.698408 -13.335067 -40.604465 7.625153 0.205079 0.694095 -3.125861 -5.116740 -30.904735 2.785203 -7.700200 0.000000 -53.288000 -2.489765 2.640585 -4.939091 -0.021787 2.980094 -4.144866 0.966271 2.865745 -2.862967 -12.248039 6.677383 0.358091 -0.801324 -0.183136 2.240131 0.000000 0.000000 0.000000 -2.160237 8.797934 -8.914069 -97.047746 -60.902371 46.422248 178.457889 -72.270857 179.849868 9.848256 -5.943964 -0.589252 0.001510 0.877067 -0.000000 0.000000 0.000000 0.000000 0.000000 0.000000 0.000000 -17.210513 12.595151 4.840497 -0.422704 12.370966 -73.388776 -2.414805 2.766579 -0.147033 -23.456554 11.190086 -2.521037 0.541126 -0.645224 -0.000000 0.000000 0.000000 0.000000 0.000000 0.000000 0.000000 
3.339065 17.131163 1.339698 16.220977 -27.323127 -1.323275 -7.794504 0.095209 9.326287 -14.831429 -33.470530 -10.579640 -4.328405 -1.123813 -1.996411 -1.025581 -5.847345 11.764669 -1.156200 -0.000000 -40.160300 11.941743 -0.638692 -5.677380 -13.124518 -40.644475 7.504127 0.240928 0.716520 -3.376249 -5.074584 -30.706271 2.838693 -7.667200 0.000000 -53.370100 -2.600316 2.677811 -4.963022 -0.034969 3.029780 -4.150234 1.003268 2.913947 -2.889841 -12.364935 6.099534 0.303222 -0.723894 -0.178435 2.231696 0.000000 0.000000 0.000000 -2.103076 8.640217 -9.032863 -97.619964 -60.310792 46.336567 178.384030 -71.552052 179.850069 9.776596 -5.961230 -0.586310 0.006461 0.878551 -0.000000 0.000000 0.000000 0.000000 0.000000 0.000000 0.000000 -17.811718 12.109675 4.771308 -1.232970 13.073823 -73.580351 -2.435444 3.777833 -0.147204 -22.572942 11.410328 -2.477169 0.538492 -0.673960 -0.000000 0.000000 0.000000 0.000000 0.000000 0.000000 0.000000 
3.325598 17.137199 1.324191 16.142516 -27.620013 -1.225814 -7.785849 0.123960 9.333622 -14.563667 -33.373661 -10.740777 -4.304982 -1.131791 -2.062621 -1.017495 -5.739798 11.811893 -1.126900 0.000000 -40.228000 11.972301 -0.682419 -5.636321 -12.854176 -40.611792 7.325809 0.277639 0.739365 -3.613999 -5.027973 -30.475199 2.893293 -7.625900 0.000000 -53.501400 -2.704217 2.700590 -5.009602 -0.059128 3.063369 -4.160873 0.984564 2.947391 -2.919324 -12.360616 5.451948 0.275608 -0.673306 -0.175770 2.229810 0.000000 0.000000 0.000000 -1.959951 8.405952 -9.141980 -98.127253 -59.737275 46.215350 178.320067 -70.826047 179.850021 9.723930 -5.970883 -0.584144 0.009015 0.881571 -0.000000 0.000000 0.000000 0.000000 0.000000 0.000000 0.000000 -18.218536 11.560791 4.683569 -1.889924 13.946941 -73.318914 -2.446471 5.254621 -0.148667 -21.647745 11.572993 -2.413306 0.530082 -0.705035 -0.000000 0.000000 0.000000 0.000000 0.000000 0.000000 0.000000 
3.313135 17.143833 1.308985 16.047535 -28.043958 -1.124924 -7.783057 0.163214 9.333349 -14.269571 -33.209641 -10.909899 -4.274123 -1.141695 -2.138544 -1.004484 -5.580493 11.833812 -1.080101 -0.000000 -40.302000 12.001603 -0.731804 -5.571627 -12.522486 -40.477200 7.093261 0.311929 0.762006 -3.839003 -4.979282 -30.216703 2.937771 -7.573000 0.000000 -53.648600 -2.799563 2.710879 -5.076452 -0.091919 3.082908 -4.178693 0.918863 2.968326 -2.959884 -12.237226 4.809363 0.282609 -0.647700 -0.175144 2.236479 0.000000 0.000000 0.000000 -1.737366 8.102125 -9.231538 -98.547322 -59.184249 46.036958 178.267838 -70.104346 179.849464 9.705444 -5.981602 -0.584354 0.008683 0.886656 -0.000000 0.000000 0.000000 0.000000 0.000000 0.000000 0.000000 -18.438952 11.017071 4.570613 -2.379094 14.900018 -72.573020 -2.448653 7.224078 -0.151902 -20.797682 11.634186 -2.335244 0.517982 -0.736313 -0.000000 0.000000 0.000000 0.000000 0.000000 0.000000 0.000000 
